<?xml version="1.0" encoding="utf-8"?>
<!-- Generator: Adobe Illustrator 16.0.0, SVG Export Plug-In . SVG Version: 6.00 Build 0)  -->
<!DOCTYPE svg PUBLIC "-//W3C//DTD SVG 1.1//EN" "http://www.w3.org/Graphics/SVG/1.1/DTD/svg11.dtd">
<svg version="1.1" id="Ebene_1" xmlns="http://www.w3.org/2000/svg" xmlns:xlink="http://www.w3.org/1999/xlink" x="0px" y="0px"
	 width="63.553px" height="63.553px" viewBox="0 0 63.553 63.553" enable-background="new 0 0 63.553 63.553" xml:space="preserve">
<g id="cast_x5F_icon_x5F_off_x5F_dark_1_">
	<path fill-rule="evenodd" clip-rule="evenodd" fill="#FFFFFF" d="M8.966,9.664v16.501c1.379,0.28,2.714,0.679,4,1.175V13.664h40v28
		H27.289c0.497,1.286,0.896,2.621,1.176,4h28.501v-36H8.966z"/>
	<path fill="#FFFFFF" d="M5.966,42.925v5.738h5.737C10.979,45.855,8.773,43.65,5.966,42.925z"/>
	<path fill="#FFFFFF" d="M5.966,35.812v4.042c4.47,0.822,7.987,4.34,8.81,8.81h4.042C17.925,41.984,12.646,36.705,5.966,35.812z"/>
	<path fill="#FFFFFF" d="M5.966,28.758v4.022c8.342,0.924,14.96,7.541,15.883,15.883h4.022C24.92,38.111,16.52,29.71,5.966,28.758z"
		/>
</g>
</svg>
